<svg width="20" height="10" viewBox="0 0 20 10" fill="none" xmlns="http://www.w3.org/2000/svg">
<path d="M9.53 1.04C14.7933 1.04 19.06 0.807188 19.06 0.52C19.06 0.232812 14.7933 0 9.53 0C4.26673 0 0 0.232812 0 0.52C0 0.807188 4.26673 1.04 9.53 1.04Z" fill="white"/>
<path d="M9.53 5.35C14.7933 5.35 19.06 5.11719 19.06 4.83C19.06 4.54281 14.7933 4.31 9.53 4.31C4.26673 4.31 0 4.54281 0 4.83C0 5.11719 4.26673 5.35 9.53 5.35Z" fill="white"/>
<path d="M9.53 9.64999C14.7933 9.64999 19.06 9.41717 19.06 9.12999C19.06 8.8428 14.7933 8.60999 9.53 8.60999C4.26673 8.60999 0 8.8428 0 9.12999C0 9.41717 4.26673 9.64999 9.53 9.64999Z" fill="white"/>
</svg>
